# xmcd CD database file
#
# Track frame offsets:
#	150
#	14655
#	29661
#	49075
#	64830
#	81507
#	98637
#	116469
#	129899
#	146595
#	162124
#	178074
#	193525
#	212558
#
# Disc length: 2841 seconds
#
# Revision: 0
# Processed by: cddbd v1.5.2PL0 Copyright (c) Steve Scherf et al.
# Submitted via: CDex 1.70beta2
#
DISCID=c20b170e
DTITLE=Wild Boots - Sometimes
DYEAR=2001
DGENRE=Country
TTITLE0=Two more bottles of wine
TTITLE1=Where your road leads
TTITLE2=Sometimes
TTITLE3=Where'm I gonna live
TTITLE4=Chanceless
TTITLE5=No more you
TTITLE6=Another good reason
TTITLE7=What do I do
TTITLE8=Watch me
TTITLE9=Tonight I'll let my memory
TTITLE10=The fool
TTITLE11=Just a few minutes more
TTITLE12=The Rose
TTITLE13=Bonus
EXTD=YEAR: 2001
EXTT0=
EXTT1=
EXTT2=
EXTT3=
EXTT4=
EXTT5=
EXTT6=
EXTT7=
EXTT8=
EXTT9=
EXTT10=
EXTT11=
EXTT12=
EXTT13=
PLAYORDER=
